<svg width="1200" height="504" viewBox="0 0 1200 504" fill="none" xmlns="http://www.w3.org/2000/svg">
<path d="M160 72V432" stroke="#C6CDD7" stroke-width="1.5"/>
<path d="M600 72V432" stroke="#C6CDD7" stroke-width="1.5"/>
<path d="M1040 72V432" stroke="#C6CDD7" stroke-width="1.5"/>
<path d="M76 0.5H244C252.56 0.5 259.5 7.43959 259.5 16V56C259.5 64.5604 252.56 71.5 244 71.5H76C67.4396 71.5 60.5 64.5604 60.5 56V16C60.5 7.43959 67.4396 0.5 76 0.5Z" fill="#E9F1FF"/>
<path d="M76 0.5H244C252.56 0.5 259.5 7.43959 259.5 16V56C259.5 64.5604 252.56 71.5 244 71.5H76C67.4396 71.5 60.5 64.5604 60.5 56V16C60.5 7.43959 67.4396 0.5 76 0.5Z" stroke="#0070DE"/>
<path d="M147.478 47.0859H144.877V25.8984H147.478V47.0859ZM130.861 41.2031C131.603 41.1953 132.404 41.1875 133.263 41.1797C134.123 41.1641 134.877 41.1484 135.525 41.1328V39.1875C134.728 39.0625 134.033 38.8242 133.439 38.4727C132.853 38.1211 132.396 37.6797 132.068 37.1484C131.748 36.6094 131.588 36.0078 131.588 35.3438C131.588 34.5547 131.806 33.8594 132.244 33.2578C132.681 32.6562 133.291 32.1914 134.072 31.8633C134.861 31.5273 135.767 31.3594 136.791 31.3594C137.822 31.3594 138.736 31.5273 139.533 31.8633C140.33 32.1914 140.951 32.6562 141.396 33.2578C141.842 33.8594 142.064 34.5547 142.064 35.3438C142.064 36 141.9 36.5938 141.572 37.125C141.252 37.6562 140.795 38.1016 140.201 38.4609C139.607 38.8125 138.916 39.0508 138.127 39.1758V41.0391C140.095 40.9531 141.931 40.7969 143.635 40.5703L143.822 42.5156C141.752 42.8672 139.627 43.0977 137.447 43.207C135.267 43.3086 132.885 43.3594 130.299 43.3594L129.924 41.2031H130.861ZM143.26 30.3984H130.369V28.3359H135.525V25.9688H138.127V28.3359H143.26V30.3984ZM136.791 33.3516C135.97 33.3672 135.31 33.5508 134.81 33.9023C134.31 34.2539 134.064 34.7344 134.072 35.3438C134.064 35.7422 134.174 36.0898 134.4 36.3867C134.635 36.6758 134.959 36.8984 135.373 37.0547C135.787 37.2031 136.26 37.2734 136.791 37.2656C137.627 37.2812 138.295 37.1172 138.795 36.7734C139.302 36.4219 139.556 35.9453 139.556 35.3438C139.556 34.7344 139.306 34.2539 138.806 33.9023C138.306 33.5508 137.635 33.3672 136.791 33.3516ZM168.098 41.9531H165.473V40.1016H161.324V38.2734H165.473V25.9219H168.098V41.9531ZM168.59 46.6641H153.051V40.4062H155.652V44.5547H168.59V46.6641ZM150.238 35.4375C152.988 35.4219 155.457 35.375 157.645 35.2969C159.832 35.2188 161.918 35.0547 163.902 34.8047L164.043 36.6797C162.348 36.9609 160.566 37.1641 158.699 37.2891V41.3672H156.098V37.4297C154.59 37.4922 152.746 37.5234 150.566 37.5234L150.238 35.4375ZM157.152 26.6953C158.176 26.6953 159.082 26.8555 159.871 27.1758C160.668 27.4883 161.289 27.9297 161.734 28.5C162.188 29.0625 162.418 29.7109 162.426 30.4453C162.418 31.1953 162.191 31.8516 161.746 32.4141C161.301 32.9766 160.68 33.4102 159.883 33.7148C159.086 34.0195 158.176 34.1719 157.152 34.1719C156.113 34.1719 155.191 34.0195 154.387 33.7148C153.59 33.4102 152.969 32.9766 152.523 32.4141C152.078 31.8516 151.855 31.1953 151.855 30.4453C151.855 29.7109 152.078 29.0625 152.523 28.5C152.969 27.9297 153.59 27.4883 154.387 27.1758C155.191 26.8555 156.113 26.6953 157.152 26.6953ZM157.152 28.6172C156.301 28.6172 155.613 28.7812 155.09 29.1094C154.574 29.4297 154.316 29.875 154.316 30.4453C154.316 31.0156 154.574 31.4648 155.09 31.793C155.613 32.1133 156.301 32.2734 157.152 32.2734C157.973 32.2734 158.641 32.1094 159.156 31.7812C159.672 31.4531 159.934 31.0078 159.941 30.4453C159.934 29.8828 159.672 29.4375 159.156 29.1094C158.641 28.7812 157.973 28.6172 157.152 28.6172ZM178.405 30.9844C178.397 32.25 178.596 33.4922 179.002 34.7109C179.416 35.9219 180.014 37.0078 180.795 37.9688C181.576 38.9297 182.498 39.6641 183.561 40.1719L181.967 42.2578C180.842 41.6875 179.865 40.875 179.037 39.8203C178.217 38.7656 177.576 37.5469 177.115 36.1641C176.639 37.6406 175.967 38.9453 175.1 40.0781C174.24 41.2031 173.217 42.0625 172.03 42.6562L170.436 40.5703C171.537 40.0469 172.49 39.2852 173.295 38.2852C174.108 37.2773 174.725 36.1406 175.147 34.875C175.576 33.6016 175.795 32.3047 175.803 30.9844V27.6094H178.405V30.9844ZM187.428 34.1953H190.686V36.4219H187.428V47.0859H184.826V25.8984H187.428V34.1953Z" fill="#1A1F27"/>
<path d="M500 16C500 7.16344 507.163 0 516 0H684C692.837 0 700 7.16344 700 16V56C700 64.8366 692.837 72 684 72H516C507.163 72 500 64.8366 500 56V16Z" fill="#0070DE"/>
<path d="M588.676 45H585.958L577.919 33.3984H577.778V45H574.731V28.0312H577.497L585.489 39.6328H585.653V28.0312H588.676V45ZM594.624 45H591.577V28.0312H594.624V45ZM608.985 33.75C608.868 33.0859 608.622 32.5117 608.247 32.0273C607.872 31.543 607.396 31.1758 606.818 30.9258C606.247 30.668 605.618 30.5391 604.931 30.5391C603.993 30.5391 603.169 30.7734 602.458 31.2422C601.747 31.7031 601.193 32.3828 600.794 33.2812C600.396 34.1797 600.196 35.2578 600.196 36.5156C600.196 37.7812 600.396 38.8633 600.794 39.7617C601.193 40.6602 601.747 41.3398 602.458 41.8008C603.177 42.2617 604.001 42.4922 604.931 42.4922C605.603 42.4922 606.22 42.3711 606.782 42.1289C607.353 41.8789 607.829 41.5195 608.212 41.0508C608.595 40.582 608.853 40.0234 608.985 39.375H612.056C611.9 40.4688 611.505 41.4609 610.872 42.3516C610.247 43.2422 609.419 43.9453 608.388 44.4609C607.357 44.9766 606.189 45.2344 604.884 45.2344C603.392 45.2344 602.056 44.8867 600.876 44.1914C599.704 43.4883 598.786 42.4805 598.122 41.168C597.458 39.8477 597.126 38.2969 597.126 36.5156C597.126 34.7266 597.458 33.1758 598.122 31.8633C598.794 30.5508 599.716 29.5469 600.888 28.8516C602.068 28.1484 603.4 27.7969 604.884 27.7969C606.134 27.7969 607.271 28.0352 608.294 28.5117C609.318 28.9805 610.157 29.6641 610.814 30.5625C611.47 31.4531 611.884 32.5156 612.056 33.75H608.985ZM614.441 28.0312H625.48V30.5859H617.488V35.2266H624.894V37.7812H617.488V42.4219H625.527V45H614.441V28.0312Z" fill="white"/>
<path d="M956 0.5H1124C1132.56 0.5 1139.5 7.43959 1139.5 16V56C1139.5 64.5604 1132.56 71.5 1124 71.5H956C947.44 71.5 940.5 64.5604 940.5 56V16C940.5 7.43959 947.44 0.5 956 0.5Z" fill="#E9F1FF"/>
<path d="M956 0.5H1124C1132.56 0.5 1139.5 7.43959 1139.5 16V56C1139.5 64.5604 1132.56 71.5 1124 71.5H956C947.44 71.5 940.5 64.5604 940.5 56V16C940.5 7.43959 947.44 0.5 956 0.5Z" stroke="#0F50B3"/>
<path d="M1037.38 29.8828V30.1406C1037.37 31.3125 1037.35 32.332 1037.31 33.1992C1037.28 34.0586 1037.2 35.0586 1037.08 36.1992C1036.97 37.332 1036.78 38.5625 1036.53 39.8906L1033.91 39.6094C1034.16 38.375 1034.34 37.2109 1034.46 36.1172C1034.58 35.0156 1034.65 34.0391 1034.68 33.1875C1034.72 32.3359 1034.75 31.3359 1034.75 30.1875V29.9297H1022.1V27.8438H1037.38V29.8828ZM1039.39 44.3438H1020.08V42.2109H1027.21V34.8516H1029.78V42.2109H1039.39V44.3438ZM1058.7 38.3438H1056.22V33.0703H1053.99V38.25H1051.53V26.3203H1053.99V30.9375H1056.22V25.9219H1058.7V38.3438ZM1058.7 47.0859H1056.1V41.3203H1044.1V39.2109H1058.7V47.0859ZM1049.82 27.3984C1049.83 30.0234 1049.16 32.2578 1047.81 34.1016C1046.48 35.9375 1044.44 37.4141 1041.71 38.5312L1040.47 36.5859C1044.51 35.0469 1046.74 32.6875 1047.17 29.5078H1041.43V27.3984H1049.82Z" fill="#1A1F27"/>
<path d="M1040 135L1032.5 130.67V139.33L1040 135ZM1033.25 135V134.25L600 134.25V135V135.75L1033.25 135.75V135Z" fill="#C6CDD7"/>
<g filter="url(#filter0_d_1451_5976)">
<path d="M693 120C693 111.163 700.163 104 709 104H922C930.837 104 938 111.163 938 120V150C938 158.837 930.837 166 922 166H709C700.163 166 693 158.837 693 150V120Z" fill="white" shape-rendering="crispEdges"/>
<path d="M709 104.75H922C930.422 104.75 937.25 111.578 937.25 120V150C937.25 158.422 930.422 165.25 922 165.25H709C700.578 165.25 693.75 158.422 693.75 150V120C693.75 111.578 700.578 104.75 709 104.75Z" stroke="#C6CDD7" stroke-width="1.5" shape-rendering="crispEdges"/>
<rect x="725" y="123" width="24" height="24" rx="12" fill="#DDE5F2"/>
<path d="M738.148 139H736.613V132.004H736.566L734.586 133.27V131.875L736.684 130.516H738.148V139Z" fill="#1A1F27"/>
<path d="M773.922 136.375H766.852V139.93H765.328V136.375H758.023V135.105H773.922V136.375ZM771.852 133.113H760.094V127.078H771.852V133.113ZM761.598 131.883H770.328V128.289H761.598V131.883ZM772.145 143.211H760.055V138.211H761.598V141.922H772.145V143.211ZM781.207 131.551C781.201 132.462 781.396 133.39 781.793 134.334C782.197 135.271 782.743 136.121 783.434 136.883C784.124 137.638 784.885 138.211 785.719 138.602L784.84 139.812C783.87 139.344 782.994 138.628 782.213 137.664C781.438 136.701 780.852 135.626 780.455 134.441C780.195 135.288 779.837 136.092 779.381 136.854C778.925 137.615 778.404 138.289 777.818 138.875C777.232 139.454 776.617 139.91 775.973 140.242L775.035 139.031C775.862 138.634 776.63 138.032 777.34 137.225C778.056 136.417 778.626 135.512 779.049 134.51C779.479 133.507 779.697 132.521 779.703 131.551V129.285H775.66V128.016H785.113V129.285H781.207V131.551ZM788.766 133.25H791.676V134.559H788.766V143.582H787.242V126.219H788.766V133.25ZM799.898 132.781H802.535V126.59H804V142.703H802.535V134.051H799.898V138.914H793.258V128.25H799.898V132.781ZM794.703 137.684H798.453V129.48H794.703V137.684ZM807.496 143.582H806.012V126.219H807.496V143.582ZM816.07 130.887C816.064 131.915 816.272 132.938 816.695 133.953C817.118 134.962 817.691 135.861 818.414 136.648C819.137 137.436 819.924 138.022 820.777 138.406L819.84 139.617C818.85 139.129 817.952 138.403 817.145 137.439C816.344 136.469 815.738 135.369 815.328 134.139C814.924 135.447 814.319 136.619 813.512 137.654C812.704 138.683 811.793 139.454 810.777 139.969L809.801 138.68C810.654 138.283 811.441 137.68 812.164 136.873C812.887 136.059 813.463 135.128 813.893 134.08C814.322 133.025 814.54 131.961 814.547 130.887V127.723H816.07V130.887ZM824.215 143.621H822.672V126.219H824.215V143.621ZM833.395 131.551C833.395 132.508 833.606 133.462 834.029 134.412C834.452 135.356 835.022 136.199 835.738 136.941C836.461 137.677 837.249 138.23 838.102 138.602L837.242 139.812C836.22 139.344 835.299 138.637 834.479 137.693C833.658 136.743 833.046 135.672 832.643 134.48C832.239 135.757 831.627 136.912 830.807 137.947C829.993 138.976 829.091 139.741 828.102 140.242L827.184 139.031C828.004 138.634 828.769 138.035 829.479 137.234C830.195 136.434 830.768 135.532 831.197 134.529C831.627 133.52 831.845 132.527 831.852 131.551V129.285H827.75V128.016H837.535V129.285H833.395V131.551ZM841.5 143.582H839.957V126.219H841.5V143.582ZM853.648 127.195C854.417 127.189 855.1 127.352 855.699 127.684C856.305 128.016 856.777 128.481 857.115 129.08C857.46 129.679 857.633 130.359 857.633 131.121C857.633 131.883 857.464 132.563 857.125 133.162C856.786 133.755 856.314 134.217 855.709 134.549C855.104 134.881 854.417 135.047 853.648 135.047C852.874 135.047 852.184 134.881 851.578 134.549C850.979 134.217 850.51 133.755 850.172 133.162C849.84 132.563 849.677 131.883 849.684 131.121C849.677 130.353 849.84 129.673 850.172 129.08C850.51 128.481 850.979 128.016 851.578 127.684C852.184 127.352 852.874 127.189 853.648 127.195ZM853.648 128.445C853.16 128.445 852.717 128.559 852.32 128.787C851.923 129.015 851.614 129.334 851.393 129.744C851.171 130.148 851.064 130.607 851.07 131.121C851.064 131.629 851.171 132.085 851.393 132.488C851.614 132.892 851.923 133.208 852.32 133.436C852.717 133.663 853.16 133.777 853.648 133.777C854.137 133.777 854.576 133.663 854.967 133.436C855.357 133.208 855.663 132.892 855.885 132.488C856.106 132.085 856.22 131.629 856.227 131.121C856.22 130.607 856.106 130.148 855.885 129.744C855.663 129.334 855.357 129.015 854.967 128.787C854.576 128.559 854.137 128.445 853.648 128.445ZM864.234 135.691H862.77V131.512H860.465V135.555H859.02V126.57H860.465V130.223H862.77V126.238H864.234V135.691ZM854.312 138.543H862.73V136.473H864.234V143.348H852.789V136.473H854.312V138.543ZM862.73 142.098V139.812H854.312V142.098H862.73ZM886.793 130.066H872.574V128.797H878.941V126.512H880.445V128.797H886.793V130.066ZM887.691 141.551H871.793V140.281H878.941V137.84C877.913 137.788 877.027 137.622 876.285 137.342C875.543 137.062 874.973 136.684 874.576 136.209C874.186 135.727 873.993 135.164 874 134.52C873.993 133.836 874.218 133.25 874.674 132.762C875.136 132.267 875.797 131.893 876.656 131.639C877.516 131.378 878.531 131.251 879.703 131.258C880.862 131.251 881.871 131.378 882.73 131.639C883.59 131.893 884.251 132.267 884.713 132.762C885.175 133.25 885.406 133.836 885.406 134.52C885.406 135.164 885.204 135.727 884.801 136.209C884.404 136.684 883.834 137.062 883.092 137.342C882.35 137.622 881.467 137.788 880.445 137.84V140.281H887.691V141.551ZM879.703 132.469C878.844 132.469 878.098 132.55 877.467 132.713C876.842 132.876 876.363 133.113 876.031 133.426C875.699 133.732 875.536 134.096 875.543 134.52C875.536 135.177 875.898 135.688 876.627 136.053C877.363 136.411 878.388 136.596 879.703 136.609C880.999 136.596 882.011 136.411 882.74 136.053C883.476 135.688 883.844 135.177 883.844 134.52C883.844 134.096 883.678 133.732 883.346 133.426C883.014 133.113 882.535 132.876 881.91 132.713C881.285 132.55 880.549 132.469 879.703 132.469ZM904.898 135.145H897.73V136.766H902.867V140.516H892.555V142.215H903.395V143.387H891.031V139.422H901.363V137.918H890.992V136.766H896.227V135.145H889.098V133.953H904.898V135.145ZM897.73 127.742H903.297V128.953H897.848C897.939 129.513 898.271 130.011 898.844 130.447C899.417 130.877 900.156 131.222 901.061 131.482C901.965 131.743 902.958 131.909 904.039 131.98L903.57 133.152C902.04 133.022 900.686 132.723 899.508 132.254C898.336 131.785 897.496 131.154 896.988 130.359C896.48 131.154 895.637 131.785 894.459 132.254C893.281 132.723 891.923 133.022 890.387 133.152L889.938 131.98C891.012 131.909 892.001 131.743 892.906 131.482C893.811 131.222 894.547 130.877 895.113 130.447C895.686 130.011 896.021 129.513 896.119 128.953H890.719V127.742H896.227V126.121H897.73V127.742Z" fill="#1A1F27"/>
</g>
<path d="M600 213L607.5 217.33V208.67L600 213ZM1040 213V212.25L606.75 212.25V213V213.75L1040 213.75V213Z" fill="#C6CDD7"/>
<g filter="url(#filter1_d_1451_5976)">
<path d="M712 198C712 189.163 719.163 182 728 182H906C914.837 182 922 189.163 922 198V228C922 236.837 914.837 244 906 244H728C719.163 244 712 236.837 712 228V198Z" fill="white" shape-rendering="crispEdges"/>
<path d="M728 182.75H906C914.422 182.75 921.25 189.578 921.25 198V228C921.25 236.422 914.422 243.25 906 243.25H728C719.578 243.25 712.75 236.422 712.75 228V198C712.75 189.578 719.578 182.75 728 182.75Z" stroke="#C6CDD7" stroke-width="1.5" shape-rendering="crispEdges"/>
<rect x="744" y="201" width="24" height="24" rx="12" fill="#DDE5F2"/>
<path d="M752.703 215.898L755.703 213.004C756.027 212.68 756.277 212.414 756.453 212.207C756.633 211.996 756.77 211.789 756.863 211.586C756.957 211.379 757.004 211.16 757.004 210.93C757.004 210.672 756.941 210.445 756.816 210.25C756.691 210.055 756.518 209.904 756.295 209.799C756.076 209.693 755.828 209.641 755.551 209.641C755.262 209.641 755.008 209.699 754.789 209.816C754.574 209.93 754.408 210.094 754.291 210.309C754.174 210.52 754.117 210.766 754.121 211.047H752.668C752.664 210.52 752.785 210.057 753.031 209.658C753.277 209.256 753.619 208.945 754.057 208.727C754.498 208.508 755 208.398 755.562 208.398C756.133 208.398 756.637 208.504 757.074 208.715C757.516 208.926 757.857 209.219 758.1 209.594C758.346 209.965 758.469 210.387 758.469 210.859C758.469 211.188 758.404 211.504 758.275 211.809C758.15 212.113 757.936 212.451 757.631 212.822C757.326 213.189 756.895 213.637 756.336 214.164L754.824 215.664V215.723H758.598V217H752.703V215.898Z" fill="#1A1F27"/>
<path d="M791.164 216.934H789.641V204.238H791.164V216.934ZM791.711 221.211H779.953V215.645H781.477V219.922H791.711V221.211ZM781.789 205.449C782.648 205.449 783.423 205.632 784.113 205.996C784.81 206.354 785.354 206.859 785.744 207.51C786.141 208.154 786.34 208.887 786.34 209.707C786.34 210.54 786.141 211.283 785.744 211.934C785.354 212.578 784.81 213.083 784.113 213.447C783.423 213.805 782.648 213.984 781.789 213.984C780.93 213.984 780.152 213.805 779.455 213.447C778.765 213.083 778.221 212.578 777.824 211.934C777.434 211.283 777.238 210.54 777.238 209.707C777.238 208.887 777.434 208.154 777.824 207.51C778.221 206.859 778.765 206.354 779.455 205.996C780.152 205.632 780.93 205.449 781.789 205.449ZM781.789 206.797C781.21 206.797 780.686 206.921 780.217 207.168C779.755 207.415 779.39 207.76 779.123 208.203C778.863 208.646 778.736 209.147 778.742 209.707C778.736 210.273 778.863 210.781 779.123 211.23C779.39 211.673 779.755 212.018 780.217 212.266C780.686 212.513 781.21 212.637 781.789 212.637C782.355 212.637 782.87 212.513 783.332 212.266C783.801 212.018 784.169 211.673 784.436 211.23C784.702 210.781 784.836 210.273 784.836 209.707C784.836 209.154 784.702 208.656 784.436 208.213C784.169 207.77 783.801 207.425 783.332 207.178C782.87 206.924 782.355 206.797 781.789 206.797ZM809.934 213.75H794.113V212.48H809.934V213.75ZM802.023 215.273C803.26 215.273 804.325 215.397 805.217 215.645C806.115 215.892 806.802 216.253 807.277 216.729C807.753 217.197 807.993 217.76 808 218.418C807.993 219.082 807.753 219.648 807.277 220.117C806.802 220.586 806.118 220.941 805.227 221.182C804.335 221.423 803.267 221.543 802.023 221.543C800.773 221.543 799.699 221.423 798.801 221.182C797.902 220.941 797.215 220.586 796.74 220.117C796.265 219.648 796.027 219.082 796.027 218.418C796.027 217.76 796.265 217.197 796.74 216.729C797.222 216.253 797.912 215.892 798.811 215.645C799.709 215.397 800.78 215.273 802.023 215.273ZM802.023 216.484C800.617 216.497 799.523 216.67 798.742 217.002C797.967 217.334 797.583 217.806 797.59 218.418C797.583 219.023 797.967 219.492 798.742 219.824C799.523 220.15 800.617 220.312 802.023 220.312C802.941 220.312 803.732 220.238 804.396 220.088C805.061 219.945 805.568 219.73 805.92 219.443C806.278 219.157 806.457 218.815 806.457 218.418C806.457 217.806 806.066 217.334 805.285 217.002C804.504 216.67 803.417 216.497 802.023 216.484ZM808.527 206.387H803.02C803.039 207.018 803.329 207.604 803.889 208.145C804.455 208.685 805.197 209.137 806.115 209.502C807.033 209.86 808.013 210.098 809.055 210.215L808.488 211.445C807.525 211.322 806.61 211.1 805.744 210.781C804.878 210.462 804.12 210.055 803.469 209.561C802.818 209.066 802.336 208.506 802.023 207.881C801.717 208.506 801.239 209.066 800.588 209.561C799.943 210.055 799.185 210.462 798.312 210.781C797.447 211.1 796.529 211.322 795.559 211.445L795.012 210.215C796.04 210.098 797.01 209.86 797.922 209.502C798.833 209.137 799.572 208.685 800.139 208.145C800.705 207.604 801.001 207.018 801.027 206.387H795.559V205.117H808.527V206.387ZM832.297 214.375H825.227V217.93H823.703V214.375H816.398V213.105H832.297V214.375ZM830.227 211.113H818.469V205.078H830.227V211.113ZM819.973 209.883H828.703V206.289H819.973V209.883ZM830.52 221.211H818.43V216.211H819.973V219.922H830.52V221.211ZM839.582 209.551C839.576 210.462 839.771 211.39 840.168 212.334C840.572 213.271 841.118 214.121 841.809 214.883C842.499 215.638 843.26 216.211 844.094 216.602L843.215 217.812C842.245 217.344 841.369 216.628 840.588 215.664C839.813 214.701 839.227 213.626 838.83 212.441C838.57 213.288 838.212 214.092 837.756 214.854C837.3 215.615 836.779 216.289 836.193 216.875C835.607 217.454 834.992 217.91 834.348 218.242L833.41 217.031C834.237 216.634 835.005 216.032 835.715 215.225C836.431 214.417 837.001 213.512 837.424 212.51C837.854 211.507 838.072 210.521 838.078 209.551V207.285H834.035V206.016H843.488V207.285H839.582V209.551ZM847.141 211.25H850.051V212.559H847.141V221.582H845.617V204.219H847.141V211.25ZM858.254 207.461H863.312V204.961H864.836V212.52H856.75V204.961H858.254V207.461ZM863.312 211.27V208.652H858.254V211.27H863.312ZM869.582 207.988H872.199V209.277H869.582V213.203H868.059V204.219H869.582V207.988ZM869.582 218.223H860.051V220.137H870.227V221.387H858.547V217.051H868.059V215.254H858.508V214.023H869.582V218.223ZM881.945 212.852H889.113V214.102H873.293V212.852H880.441V210.293H881.945V212.852ZM881.965 205.312C881.965 206.048 882.261 206.748 882.854 207.412C883.446 208.076 884.217 208.636 885.168 209.092C886.125 209.541 887.121 209.837 888.156 209.98L887.531 211.211C886.639 211.055 885.777 210.801 884.943 210.449C884.11 210.091 883.365 209.648 882.707 209.121C882.056 208.594 881.555 208.005 881.203 207.354C880.852 208.005 880.347 208.594 879.689 209.121C879.032 209.648 878.283 210.091 877.443 210.449C876.604 210.801 875.734 211.055 874.836 211.211L874.25 209.98C875.285 209.837 876.278 209.541 877.229 209.092C878.179 208.636 878.947 208.076 879.533 207.412C880.126 206.748 880.422 206.048 880.422 205.312V204.492H881.965V205.312ZM881.203 215.547C882.447 215.547 883.514 215.664 884.406 215.898C885.298 216.133 885.982 216.475 886.457 216.924C886.932 217.373 887.173 217.917 887.18 218.555C887.173 219.193 886.932 219.733 886.457 220.176C885.982 220.625 885.298 220.964 884.406 221.191C883.514 221.426 882.447 221.543 881.203 221.543C879.947 221.543 878.869 221.426 877.971 221.191C877.079 220.964 876.395 220.625 875.92 220.176C875.445 219.733 875.207 219.193 875.207 218.555C875.207 217.917 875.445 217.373 875.92 216.924C876.395 216.475 877.079 216.133 877.971 215.898C878.869 215.664 879.947 215.547 881.203 215.547ZM881.203 216.758C879.79 216.758 878.697 216.914 877.922 217.227C877.147 217.539 876.763 217.982 876.77 218.555C876.763 218.932 876.932 219.255 877.277 219.521C877.629 219.788 878.137 219.993 878.801 220.137C879.471 220.28 880.272 220.352 881.203 220.352C882.121 220.352 882.912 220.28 883.576 220.137C884.247 219.993 884.758 219.788 885.109 219.521C885.461 219.255 885.637 218.932 885.637 218.555C885.637 217.982 885.246 217.539 884.465 217.227C883.684 216.914 882.596 216.758 881.203 216.758Z" fill="#1A1F27"/>
</g>
<path d="M600 291L592.5 286.67V295.33L600 291ZM593.25 291V290.25H160V291V291.75H593.25V291Z" fill="#C6CDD7"/>
<g filter="url(#filter2_d_1451_5976)">
<path d="M237 276C237 267.163 244.163 260 253 260H510C518.837 260 526 267.163 526 276V306C526 314.837 518.837 322 510 322H253C244.163 322 237 314.837 237 306V276Z" fill="white" shape-rendering="crispEdges"/>
<path d="M253 260.75H510C518.422 260.75 525.25 267.578 525.25 276V306C525.25 314.422 518.422 321.25 510 321.25H253C244.578 321.25 237.75 314.422 237.75 306V276C237.75 267.578 244.578 260.75 253 260.75Z" stroke="#C6CDD7" stroke-width="1.5" shape-rendering="crispEdges"/>
<rect x="269" y="279" width="24" height="24" rx="12" fill="#DDE5F2"/>
<path d="M280.785 295.117C280.188 295.117 279.652 295.016 279.18 294.812C278.707 294.609 278.336 294.326 278.066 293.963C277.797 293.596 277.656 293.176 277.645 292.703H279.18C279.195 292.926 279.273 293.123 279.414 293.295C279.559 293.463 279.75 293.594 279.988 293.688C280.227 293.781 280.492 293.828 280.785 293.828C281.094 293.828 281.369 293.775 281.611 293.67C281.857 293.561 282.049 293.41 282.186 293.219C282.322 293.027 282.391 292.809 282.391 292.562C282.391 292.309 282.32 292.082 282.18 291.883C282.039 291.684 281.836 291.529 281.57 291.42C281.305 291.307 280.992 291.25 280.633 291.25H279.871V290.078H280.633C280.93 290.078 281.193 290.027 281.424 289.926C281.658 289.82 281.84 289.674 281.969 289.486C282.098 289.295 282.16 289.078 282.156 288.836C282.16 288.602 282.105 288.395 281.992 288.215C281.883 288.031 281.725 287.891 281.518 287.793C281.311 287.691 281.07 287.641 280.797 287.641C280.531 287.641 280.283 287.689 280.053 287.787C279.826 287.881 279.643 288.016 279.502 288.191C279.365 288.367 279.293 288.57 279.285 288.801H277.82C277.832 288.332 277.969 287.916 278.23 287.553C278.496 287.189 278.854 286.906 279.303 286.703C279.756 286.5 280.258 286.398 280.809 286.398C281.367 286.398 281.861 286.504 282.291 286.715C282.721 286.922 283.053 287.205 283.287 287.564C283.521 287.924 283.637 288.32 283.633 288.754C283.637 289.066 283.574 289.35 283.445 289.604C283.316 289.857 283.135 290.068 282.9 290.236C282.666 290.404 282.395 290.52 282.086 290.582V290.652C282.48 290.707 282.818 290.824 283.1 291.004C283.381 291.18 283.594 291.408 283.738 291.689C283.883 291.971 283.953 292.289 283.949 292.645C283.953 293.113 283.818 293.537 283.545 293.916C283.275 294.291 282.898 294.586 282.414 294.801C281.934 295.012 281.391 295.117 280.785 295.117Z" fill="#1A1F27"/>
<path d="M316.074 294.934H314.551V282.238H316.074V294.934ZM316.621 299.211H304.863V293.645H306.387V297.922H316.621V299.211ZM306.699 283.449C307.559 283.449 308.333 283.632 309.023 283.996C309.72 284.354 310.264 284.859 310.654 285.51C311.051 286.154 311.25 286.887 311.25 287.707C311.25 288.54 311.051 289.283 310.654 289.934C310.264 290.578 309.72 291.083 309.023 291.447C308.333 291.805 307.559 291.984 306.699 291.984C305.84 291.984 305.062 291.805 304.365 291.447C303.675 291.083 303.132 290.578 302.734 289.934C302.344 289.283 302.148 288.54 302.148 287.707C302.148 286.887 302.344 286.154 302.734 285.51C303.132 284.859 303.675 284.354 304.365 283.996C305.062 283.632 305.84 283.449 306.699 283.449ZM306.699 284.797C306.12 284.797 305.596 284.921 305.127 285.168C304.665 285.415 304.3 285.76 304.033 286.203C303.773 286.646 303.646 287.147 303.652 287.707C303.646 288.273 303.773 288.781 304.033 289.23C304.3 289.673 304.665 290.018 305.127 290.266C305.596 290.513 306.12 290.637 306.699 290.637C307.266 290.637 307.78 290.513 308.242 290.266C308.711 290.018 309.079 289.673 309.346 289.23C309.613 288.781 309.746 288.273 309.746 287.707C309.746 287.154 309.613 286.656 309.346 286.213C309.079 285.77 308.711 285.425 308.242 285.178C307.78 284.924 307.266 284.797 306.699 284.797ZM334.844 291.75H319.023V290.48H334.844V291.75ZM326.934 293.273C328.171 293.273 329.235 293.397 330.127 293.645C331.025 293.892 331.712 294.253 332.188 294.729C332.663 295.197 332.904 295.76 332.91 296.418C332.904 297.082 332.663 297.648 332.188 298.117C331.712 298.586 331.029 298.941 330.137 299.182C329.245 299.423 328.177 299.543 326.934 299.543C325.684 299.543 324.609 299.423 323.711 299.182C322.812 298.941 322.126 298.586 321.65 298.117C321.175 297.648 320.938 297.082 320.938 296.418C320.938 295.76 321.175 295.197 321.65 294.729C322.132 294.253 322.822 293.892 323.721 293.645C324.619 293.397 325.69 293.273 326.934 293.273ZM326.934 294.484C325.527 294.497 324.434 294.67 323.652 295.002C322.878 295.334 322.493 295.806 322.5 296.418C322.493 297.023 322.878 297.492 323.652 297.824C324.434 298.15 325.527 298.312 326.934 298.312C327.852 298.312 328.643 298.238 329.307 298.088C329.971 297.945 330.479 297.73 330.83 297.443C331.188 297.157 331.367 296.815 331.367 296.418C331.367 295.806 330.977 295.334 330.195 295.002C329.414 294.67 328.327 294.497 326.934 294.484ZM333.438 284.387H327.93C327.949 285.018 328.239 285.604 328.799 286.145C329.365 286.685 330.107 287.137 331.025 287.502C331.943 287.86 332.923 288.098 333.965 288.215L333.398 289.445C332.435 289.322 331.52 289.1 330.654 288.781C329.788 288.462 329.03 288.055 328.379 287.561C327.728 287.066 327.246 286.506 326.934 285.881C326.628 286.506 326.149 287.066 325.498 287.561C324.854 288.055 324.095 288.462 323.223 288.781C322.357 289.1 321.439 289.322 320.469 289.445L319.922 288.215C320.951 288.098 321.921 287.86 322.832 287.502C323.743 287.137 324.482 286.685 325.049 286.145C325.615 285.604 325.911 285.018 325.938 284.387H320.469V283.117H333.438V284.387ZM357.207 292.375H350.137V295.93H348.613V292.375H341.309V291.105H357.207V292.375ZM355.137 289.113H343.379V283.078H355.137V289.113ZM344.883 287.883H353.613V284.289H344.883V287.883ZM355.43 299.211H343.34V294.211H344.883V297.922H355.43V299.211ZM364.492 287.551C364.486 288.462 364.681 289.39 365.078 290.334C365.482 291.271 366.029 292.121 366.719 292.883C367.409 293.638 368.171 294.211 369.004 294.602L368.125 295.812C367.155 295.344 366.279 294.628 365.498 293.664C364.723 292.701 364.137 291.626 363.74 290.441C363.48 291.288 363.122 292.092 362.666 292.854C362.21 293.615 361.689 294.289 361.104 294.875C360.518 295.454 359.902 295.91 359.258 296.242L358.32 295.031C359.147 294.634 359.915 294.032 360.625 293.225C361.341 292.417 361.911 291.512 362.334 290.51C362.764 289.507 362.982 288.521 362.988 287.551V285.285H358.945V284.016H368.398V285.285H364.492V287.551ZM372.051 289.25H374.961V290.559H372.051V299.582H370.527V282.219H372.051V289.25ZM383.164 285.461H388.223V282.961H389.746V290.52H381.66V282.961H383.164V285.461ZM388.223 289.27V286.652H383.164V289.27H388.223ZM394.492 285.988H397.109V287.277H394.492V291.203H392.969V282.219H394.492V285.988ZM394.492 296.223H384.961V298.137H395.137V299.387H383.457V295.051H392.969V293.254H383.418V292.023H394.492V296.223ZM406.855 290.852H414.023V292.102H398.203V290.852H405.352V288.293H406.855V290.852ZM406.875 283.312C406.875 284.048 407.171 284.748 407.764 285.412C408.356 286.076 409.128 286.636 410.078 287.092C411.035 287.541 412.031 287.837 413.066 287.98L412.441 289.211C411.549 289.055 410.687 288.801 409.854 288.449C409.02 288.091 408.275 287.648 407.617 287.121C406.966 286.594 406.465 286.005 406.113 285.354C405.762 286.005 405.257 286.594 404.6 287.121C403.942 287.648 403.193 288.091 402.354 288.449C401.514 288.801 400.645 289.055 399.746 289.211L399.16 287.98C400.195 287.837 401.188 287.541 402.139 287.092C403.089 286.636 403.857 286.076 404.443 285.412C405.036 284.748 405.332 284.048 405.332 283.312V282.492H406.875V283.312ZM406.113 293.547C407.357 293.547 408.424 293.664 409.316 293.898C410.208 294.133 410.892 294.475 411.367 294.924C411.842 295.373 412.083 295.917 412.09 296.555C412.083 297.193 411.842 297.733 411.367 298.176C410.892 298.625 410.208 298.964 409.316 299.191C408.424 299.426 407.357 299.543 406.113 299.543C404.857 299.543 403.779 299.426 402.881 299.191C401.989 298.964 401.305 298.625 400.83 298.176C400.355 297.733 400.117 297.193 400.117 296.555C400.117 295.917 400.355 295.373 400.83 294.924C401.305 294.475 401.989 294.133 402.881 293.898C403.779 293.664 404.857 293.547 406.113 293.547ZM406.113 294.758C404.701 294.758 403.607 294.914 402.832 295.227C402.057 295.539 401.673 295.982 401.68 296.555C401.673 296.932 401.842 297.255 402.188 297.521C402.539 297.788 403.047 297.993 403.711 298.137C404.382 298.28 405.182 298.352 406.113 298.352C407.031 298.352 407.822 298.28 408.486 298.137C409.157 297.993 409.668 297.788 410.02 297.521C410.371 297.255 410.547 296.932 410.547 296.555C410.547 295.982 410.156 295.539 409.375 295.227C408.594 294.914 407.507 294.758 406.113 294.758ZM425.176 283.566C425.97 283.573 426.68 283.798 427.305 284.24C427.93 284.676 428.431 285.298 428.809 286.105H433.379V282.219H434.902V299.621H433.379V292.883H428.916C428.551 293.768 428.044 294.452 427.393 294.934C426.748 295.415 426.009 295.656 425.176 295.656C424.329 295.656 423.574 295.409 422.91 294.914C422.253 294.419 421.738 293.716 421.367 292.805C421.003 291.893 420.82 290.832 420.82 289.621C420.82 288.41 421.003 287.349 421.367 286.438C421.738 285.526 422.253 284.823 422.91 284.328C423.568 283.827 424.323 283.573 425.176 283.566ZM425.176 284.934C424.609 284.94 424.105 285.139 423.662 285.529C423.226 285.913 422.887 286.46 422.646 287.17C422.406 287.873 422.285 288.69 422.285 289.621C422.285 290.552 422.406 291.372 422.646 292.082C422.887 292.785 423.226 293.329 423.662 293.713C424.105 294.097 424.609 294.289 425.176 294.289C425.736 294.289 426.234 294.097 426.67 293.713C427.113 293.329 427.454 292.785 427.695 292.082C427.943 291.372 428.066 290.552 428.066 289.621C428.066 288.69 427.943 287.873 427.695 287.17C427.454 286.46 427.116 285.913 426.68 285.529C426.243 285.139 425.742 284.94 425.176 284.934ZM429.258 287.395C429.427 288.124 429.512 288.866 429.512 289.621C429.512 290.298 429.443 290.962 429.307 291.613H433.379V287.395H429.258ZM453.672 293.781H446.426V299.582H444.922V293.781H437.773V292.531H453.672V293.781ZM441.328 285.344H450.078V282.941H451.621V290.422H439.805V282.941H441.328V285.344ZM450.078 289.172V286.594H441.328V289.172H450.078ZM473.652 287.492H476.25V288.781H473.652V293.879H472.109V282.238H473.652V287.492ZM460.02 292.102C462.025 292.102 463.594 292.082 464.727 292.043V290.783C464.056 290.725 463.47 290.585 462.969 290.363C462.467 290.135 462.08 289.839 461.807 289.475C461.54 289.11 461.406 288.69 461.406 288.215C461.406 287.694 461.572 287.242 461.904 286.857C462.243 286.473 462.718 286.177 463.33 285.969C463.949 285.76 464.661 285.656 465.469 285.656C466.283 285.656 466.995 285.76 467.607 285.969C468.226 286.177 468.701 286.473 469.033 286.857C469.372 287.242 469.544 287.694 469.551 288.215C469.544 288.924 469.245 289.507 468.652 289.963C468.066 290.412 467.266 290.682 466.25 290.773V291.984C468.105 291.893 469.701 291.75 471.035 291.555L471.172 292.668C469.512 292.961 467.803 293.15 466.045 293.234C464.294 293.312 462.344 293.352 460.195 293.352L460.02 292.102ZM473.652 299.582H472.109V295.969H462.148V294.738H473.652V299.582ZM470.508 284.992H460.449V283.82H464.727V282.082H466.25V283.82H470.508V284.992ZM465.469 286.75C464.668 286.743 464.033 286.87 463.564 287.131C463.102 287.391 462.871 287.753 462.871 288.215C462.871 288.514 462.975 288.778 463.184 289.006C463.398 289.234 463.701 289.413 464.092 289.543C464.482 289.667 464.941 289.725 465.469 289.719C465.996 289.725 466.455 289.667 466.846 289.543C467.243 289.413 467.549 289.234 467.764 289.006C467.979 288.778 468.086 288.514 468.086 288.215C468.086 287.759 467.848 287.398 467.373 287.131C466.904 286.864 466.27 286.737 465.469 286.75ZM491.719 294.934H490.195V282.238H491.719V294.934ZM492.266 299.211H480.508V293.645H482.031V297.922H492.266V299.211ZM482.344 283.449C483.203 283.449 483.978 283.632 484.668 283.996C485.365 284.354 485.908 284.859 486.299 285.51C486.696 286.154 486.895 286.887 486.895 287.707C486.895 288.54 486.696 289.283 486.299 289.934C485.908 290.578 485.365 291.083 484.668 291.447C483.978 291.805 483.203 291.984 482.344 291.984C481.484 291.984 480.706 291.805 480.01 291.447C479.32 291.083 478.776 290.578 478.379 289.934C477.988 289.283 477.793 288.54 477.793 287.707C477.793 286.887 477.988 286.154 478.379 285.51C478.776 284.859 479.32 284.354 480.01 283.996C480.706 283.632 481.484 283.449 482.344 283.449ZM482.344 284.797C481.764 284.797 481.24 284.921 480.771 285.168C480.309 285.415 479.945 285.76 479.678 286.203C479.417 286.646 479.29 287.147 479.297 287.707C479.29 288.273 479.417 288.781 479.678 289.23C479.945 289.673 480.309 290.018 480.771 290.266C481.24 290.513 481.764 290.637 482.344 290.637C482.91 290.637 483.424 290.513 483.887 290.266C484.355 290.018 484.723 289.673 484.99 289.23C485.257 288.781 485.391 288.273 485.391 287.707C485.391 287.154 485.257 286.656 484.99 286.213C484.723 285.77 484.355 285.425 483.887 285.178C483.424 284.924 482.91 284.797 482.344 284.797Z" fill="#1A1F27"/>
</g>
<path d="M160 369L167.5 373.33V364.67L160 369ZM600 369V368.25H166.75V369V369.75H600V369Z" fill="#C6CDD7"/>
<g filter="url(#filter3_d_1451_5976)">
<path d="M283 354C283 345.163 290.163 338 299 338H477C485.837 338 493 345.163 493 354V384C493 392.837 485.837 400 477 400H299C290.163 400 283 392.837 283 384V354Z" fill="white" shape-rendering="crispEdges"/>
<path d="M299 338.75H477C485.422 338.75 492.25 345.578 492.25 354V384C492.25 392.422 485.422 399.25 477 399.25H299C290.578 399.25 283.75 392.422 283.75 384V354C283.75 345.578 290.578 338.75 299 338.75Z" stroke="#C6CDD7" stroke-width="1.5" shape-rendering="crispEdges"/>
<rect x="315" y="357" width="24" height="24" rx="12" fill="#DDE5F2"/>
<path d="M323.551 370.199L327.219 364.516H329.117V370.164H330.23V371.418H329.117V373H327.664V371.418H323.551V370.199ZM327.688 370.164V366.25H327.594L325.109 370.105V370.164H327.688Z" fill="#1A1F27"/>
<path d="M362.164 372.934H360.641V360.238H362.164V372.934ZM362.711 377.211H350.953V371.645H352.477V375.922H362.711V377.211ZM352.789 361.449C353.648 361.449 354.423 361.632 355.113 361.996C355.81 362.354 356.354 362.859 356.744 363.51C357.141 364.154 357.34 364.887 357.34 365.707C357.34 366.54 357.141 367.283 356.744 367.934C356.354 368.578 355.81 369.083 355.113 369.447C354.423 369.805 353.648 369.984 352.789 369.984C351.93 369.984 351.152 369.805 350.455 369.447C349.765 369.083 349.221 368.578 348.824 367.934C348.434 367.283 348.238 366.54 348.238 365.707C348.238 364.887 348.434 364.154 348.824 363.51C349.221 362.859 349.765 362.354 350.455 361.996C351.152 361.632 351.93 361.449 352.789 361.449ZM352.789 362.797C352.21 362.797 351.686 362.921 351.217 363.168C350.755 363.415 350.39 363.76 350.123 364.203C349.863 364.646 349.736 365.147 349.742 365.707C349.736 366.273 349.863 366.781 350.123 367.23C350.39 367.673 350.755 368.018 351.217 368.266C351.686 368.513 352.21 368.637 352.789 368.637C353.355 368.637 353.87 368.513 354.332 368.266C354.801 368.018 355.169 367.673 355.436 367.23C355.702 366.781 355.836 366.273 355.836 365.707C355.836 365.154 355.702 364.656 355.436 364.213C355.169 363.77 354.801 363.425 354.332 363.178C353.87 362.924 353.355 362.797 352.789 362.797ZM380.934 369.75H365.113V368.48H380.934V369.75ZM373.023 371.273C374.26 371.273 375.325 371.397 376.217 371.645C377.115 371.892 377.802 372.253 378.277 372.729C378.753 373.197 378.993 373.76 379 374.418C378.993 375.082 378.753 375.648 378.277 376.117C377.802 376.586 377.118 376.941 376.227 377.182C375.335 377.423 374.267 377.543 373.023 377.543C371.773 377.543 370.699 377.423 369.801 377.182C368.902 376.941 368.215 376.586 367.74 376.117C367.265 375.648 367.027 375.082 367.027 374.418C367.027 373.76 367.265 373.197 367.74 372.729C368.222 372.253 368.912 371.892 369.811 371.645C370.709 371.397 371.78 371.273 373.023 371.273ZM373.023 372.484C371.617 372.497 370.523 372.67 369.742 373.002C368.967 373.334 368.583 373.806 368.59 374.418C368.583 375.023 368.967 375.492 369.742 375.824C370.523 376.15 371.617 376.312 373.023 376.312C373.941 376.312 374.732 376.238 375.396 376.088C376.061 375.945 376.568 375.73 376.92 375.443C377.278 375.157 377.457 374.815 377.457 374.418C377.457 373.806 377.066 373.334 376.285 373.002C375.504 372.67 374.417 372.497 373.023 372.484ZM379.527 362.387H374.02C374.039 363.018 374.329 363.604 374.889 364.145C375.455 364.685 376.197 365.137 377.115 365.502C378.033 365.86 379.013 366.098 380.055 366.215L379.488 367.445C378.525 367.322 377.61 367.1 376.744 366.781C375.878 366.462 375.12 366.055 374.469 365.561C373.818 365.066 373.336 364.506 373.023 363.881C372.717 364.506 372.239 365.066 371.588 365.561C370.943 366.055 370.185 366.462 369.312 366.781C368.447 367.1 367.529 367.322 366.559 367.445L366.012 366.215C367.04 366.098 368.01 365.86 368.922 365.502C369.833 365.137 370.572 364.685 371.139 364.145C371.705 363.604 372.001 363.018 372.027 362.387H366.559V361.117H379.527V362.387ZM401.812 369.105H400.27V367.289H395.641V366.078H400.27V363.988H395.885C395.351 365.342 394.433 366.485 393.131 367.416C391.835 368.34 390.211 369.034 388.258 369.496L387.711 368.227C389.84 367.732 391.507 366.983 392.711 365.98C393.915 364.971 394.589 363.767 394.732 362.367H388.59V361.098H396.422C396.422 361.664 396.367 362.217 396.256 362.758H400.27V360.219H401.812V369.105ZM401.812 374.125H392.125V376.156H402.398V377.426H390.602V372.953H400.27V371.137H390.562V369.887H401.812V374.125ZM414.332 363.051V363.324C414.319 364.359 414.28 365.391 414.215 366.42C414.15 367.442 414.02 368.617 413.824 369.945L412.281 369.809C412.49 368.52 412.626 367.367 412.691 366.352C412.757 365.329 412.789 364.346 412.789 363.402H405.504V362.152H414.332V363.051ZM409.781 372.387C411.923 372.309 413.824 372.172 415.484 371.977L415.562 373.129C414.046 373.37 412.447 373.536 410.768 373.627C409.088 373.712 407.346 373.754 405.543 373.754H404.723L404.527 372.484C406.188 372.471 407.438 372.455 408.277 372.436V367.113H409.781V372.387ZM418.102 367.484H420.914V368.812H418.102V377.582H416.578V360.219H418.102V367.484ZM441.852 377.582H440.387V360.219H441.852V377.582ZM438.336 376.684H436.891V367.738H433.961V366.488H436.891V360.648H438.336V376.684ZM432.105 365.18C432.105 366.189 432.252 367.175 432.545 368.139C432.838 369.096 433.268 369.962 433.834 370.736C434.4 371.505 435.074 372.113 435.855 372.562L434.918 373.695C434.078 373.194 433.359 372.501 432.76 371.615C432.161 370.723 431.705 369.714 431.393 368.588C431.074 369.805 430.602 370.896 429.977 371.859C429.358 372.823 428.622 373.572 427.77 374.105L426.793 372.953C427.581 372.484 428.264 371.843 428.844 371.029C429.423 370.215 429.863 369.304 430.162 368.295C430.468 367.279 430.621 366.241 430.621 365.18V363.539H427.281V362.27H435.289V363.539H432.105V365.18ZM452.145 371.195C453.388 371.195 454.465 371.322 455.377 371.576C456.295 371.824 457.001 372.188 457.496 372.67C457.991 373.145 458.238 373.715 458.238 374.379C458.238 375.036 457.991 375.603 457.496 376.078C457.001 376.553 456.295 376.915 455.377 377.162C454.459 377.416 453.382 377.543 452.145 377.543C450.908 377.543 449.833 377.416 448.922 377.162C448.01 376.915 447.307 376.553 446.812 376.078C446.318 375.603 446.07 375.036 446.07 374.379C446.07 373.715 446.318 373.145 446.812 372.67C447.307 372.188 448.01 371.824 448.922 371.576C449.833 371.322 450.908 371.195 452.145 371.195ZM452.145 372.367C451.227 372.374 450.423 372.458 449.732 372.621C449.042 372.784 448.512 373.018 448.141 373.324C447.77 373.624 447.587 373.975 447.594 374.379C447.587 374.776 447.77 375.124 448.141 375.424C448.512 375.717 449.042 375.941 449.732 376.098C450.423 376.254 451.227 376.332 452.145 376.332C453.062 376.332 453.863 376.254 454.547 376.098C455.237 375.941 455.768 375.717 456.139 375.424C456.516 375.124 456.708 374.776 456.715 374.379C456.708 373.975 456.516 373.624 456.139 373.324C455.768 373.018 455.237 372.784 454.547 372.621C453.863 372.458 453.062 372.374 452.145 372.367ZM458.102 362.582C458.102 363.52 458.072 364.324 458.014 364.994C457.962 365.658 457.828 366.391 457.613 367.191L456.109 367.016C456.318 366.215 456.448 365.499 456.5 364.867C456.552 364.236 456.578 363.474 456.578 362.582V362.367H446.188V361.117H458.102V362.582ZM460.113 369.574H444.312V368.324H450.855V364.965H452.359V368.324H460.113V369.574Z" fill="#1A1F27"/>
</g>
<path d="M76 432.5H244C252.56 432.5 259.5 439.44 259.5 448V488C259.5 496.56 252.56 503.5 244 503.5H76C67.4396 503.5 60.5 496.56 60.5 488V448C60.5 439.44 67.4396 432.5 76 432.5Z" fill="#E9F1FF"/>
<path d="M76 432.5H244C252.56 432.5 259.5 439.44 259.5 448V488C259.5 496.56 252.56 503.5 244 503.5H76C67.4396 503.5 60.5 496.56 60.5 488V448C60.5 439.44 67.4396 432.5 76 432.5Z" stroke="#0070DE"/>
<path d="M147.478 479.086H144.877V457.898H147.478V479.086ZM130.861 473.203C131.603 473.195 132.404 473.188 133.263 473.18C134.123 473.164 134.877 473.148 135.525 473.133V471.188C134.728 471.062 134.033 470.824 133.439 470.473C132.853 470.121 132.396 469.68 132.068 469.148C131.748 468.609 131.588 468.008 131.588 467.344C131.588 466.555 131.806 465.859 132.244 465.258C132.681 464.656 133.291 464.191 134.072 463.863C134.861 463.527 135.767 463.359 136.791 463.359C137.822 463.359 138.736 463.527 139.533 463.863C140.33 464.191 140.951 464.656 141.396 465.258C141.842 465.859 142.064 466.555 142.064 467.344C142.064 468 141.9 468.594 141.572 469.125C141.252 469.656 140.795 470.102 140.201 470.461C139.607 470.812 138.916 471.051 138.127 471.176V473.039C140.095 472.953 141.931 472.797 143.635 472.57L143.822 474.516C141.752 474.867 139.627 475.098 137.447 475.207C135.267 475.309 132.885 475.359 130.299 475.359L129.924 473.203H130.861ZM143.26 462.398H130.369V460.336H135.525V457.969H138.127V460.336H143.26V462.398ZM136.791 465.352C135.97 465.367 135.31 465.551 134.81 465.902C134.31 466.254 134.064 466.734 134.072 467.344C134.064 467.742 134.174 468.09 134.4 468.387C134.635 468.676 134.959 468.898 135.373 469.055C135.787 469.203 136.26 469.273 136.791 469.266C137.627 469.281 138.295 469.117 138.795 468.773C139.302 468.422 139.556 467.945 139.556 467.344C139.556 466.734 139.306 466.254 138.806 465.902C138.306 465.551 137.635 465.367 136.791 465.352ZM168.098 473.953H165.473V472.102H161.324V470.273H165.473V457.922H168.098V473.953ZM168.59 478.664H153.051V472.406H155.652V476.555H168.59V478.664ZM150.238 467.438C152.988 467.422 155.457 467.375 157.645 467.297C159.832 467.219 161.918 467.055 163.902 466.805L164.043 468.68C162.348 468.961 160.566 469.164 158.699 469.289V473.367H156.098V469.43C154.59 469.492 152.746 469.523 150.566 469.523L150.238 467.438ZM157.152 458.695C158.176 458.695 159.082 458.855 159.871 459.176C160.668 459.488 161.289 459.93 161.734 460.5C162.188 461.062 162.418 461.711 162.426 462.445C162.418 463.195 162.191 463.852 161.746 464.414C161.301 464.977 160.68 465.41 159.883 465.715C159.086 466.02 158.176 466.172 157.152 466.172C156.113 466.172 155.191 466.02 154.387 465.715C153.59 465.41 152.969 464.977 152.523 464.414C152.078 463.852 151.855 463.195 151.855 462.445C151.855 461.711 152.078 461.062 152.523 460.5C152.969 459.93 153.59 459.488 154.387 459.176C155.191 458.855 156.113 458.695 157.152 458.695ZM157.152 460.617C156.301 460.617 155.613 460.781 155.09 461.109C154.574 461.43 154.316 461.875 154.316 462.445C154.316 463.016 154.574 463.465 155.09 463.793C155.613 464.113 156.301 464.273 157.152 464.273C157.973 464.273 158.641 464.109 159.156 463.781C159.672 463.453 159.934 463.008 159.941 462.445C159.934 461.883 159.672 461.438 159.156 461.109C158.641 460.781 157.973 460.617 157.152 460.617ZM178.405 462.984C178.397 464.25 178.596 465.492 179.002 466.711C179.416 467.922 180.014 469.008 180.795 469.969C181.576 470.93 182.498 471.664 183.561 472.172L181.967 474.258C180.842 473.688 179.865 472.875 179.037 471.82C178.217 470.766 177.576 469.547 177.115 468.164C176.639 469.641 175.967 470.945 175.1 472.078C174.24 473.203 173.217 474.062 172.03 474.656L170.436 472.57C171.537 472.047 172.49 471.285 173.295 470.285C174.108 469.277 174.725 468.141 175.147 466.875C175.576 465.602 175.795 464.305 175.803 462.984V459.609H178.405V462.984ZM187.428 466.195H190.686V468.422H187.428V479.086H184.826V457.898H187.428V466.195Z" fill="#1A1F27"/>
<path d="M500 448C500 439.163 507.163 432 516 432H684C692.837 432 700 439.163 700 448V488C700 496.837 692.837 504 684 504H516C507.163 504 500 496.837 500 488V448Z" fill="#0070DE"/>
<path d="M588.676 477H585.958L577.919 465.398H577.778V477H574.731V460.031H577.497L585.489 471.633H585.653V460.031H588.676V477ZM594.624 477H591.577V460.031H594.624V477ZM608.985 465.75C608.868 465.086 608.622 464.512 608.247 464.027C607.872 463.543 607.396 463.176 606.818 462.926C606.247 462.668 605.618 462.539 604.931 462.539C603.993 462.539 603.169 462.773 602.458 463.242C601.747 463.703 601.193 464.383 600.794 465.281C600.396 466.18 600.196 467.258 600.196 468.516C600.196 469.781 600.396 470.863 600.794 471.762C601.193 472.66 601.747 473.34 602.458 473.801C603.177 474.262 604.001 474.492 604.931 474.492C605.603 474.492 606.22 474.371 606.782 474.129C607.353 473.879 607.829 473.52 608.212 473.051C608.595 472.582 608.853 472.023 608.985 471.375H612.056C611.9 472.469 611.505 473.461 610.872 474.352C610.247 475.242 609.419 475.945 608.388 476.461C607.357 476.977 606.189 477.234 604.884 477.234C603.392 477.234 602.056 476.887 600.876 476.191C599.704 475.488 598.786 474.48 598.122 473.168C597.458 471.848 597.126 470.297 597.126 468.516C597.126 466.727 597.458 465.176 598.122 463.863C598.794 462.551 599.716 461.547 600.888 460.852C602.068 460.148 603.4 459.797 604.884 459.797C606.134 459.797 607.271 460.035 608.294 460.512C609.318 460.98 610.157 461.664 610.814 462.562C611.47 463.453 611.884 464.516 612.056 465.75H608.985ZM614.441 460.031H625.48V462.586H617.488V467.227H624.894V469.781H617.488V474.422H625.527V477H614.441V460.031Z" fill="white"/>
<path d="M956 432.5H1124C1132.56 432.5 1139.5 439.44 1139.5 448V488C1139.5 496.56 1132.56 503.5 1124 503.5H956C947.44 503.5 940.5 496.56 940.5 488V448C940.5 439.44 947.44 432.5 956 432.5Z" fill="#E9F1FF"/>
<path d="M956 432.5H1124C1132.56 432.5 1139.5 439.44 1139.5 448V488C1139.5 496.56 1132.56 503.5 1124 503.5H956C947.44 503.5 940.5 496.56 940.5 488V448C940.5 439.44 947.44 432.5 956 432.5Z" stroke="#0F50B3"/>
<path d="M1037.38 461.883V462.141C1037.37 463.312 1037.35 464.332 1037.31 465.199C1037.28 466.059 1037.2 467.059 1037.08 468.199C1036.97 469.332 1036.78 470.562 1036.53 471.891L1033.91 471.609C1034.16 470.375 1034.34 469.211 1034.46 468.117C1034.58 467.016 1034.65 466.039 1034.68 465.188C1034.72 464.336 1034.75 463.336 1034.75 462.188V461.93H1022.1V459.844H1037.38V461.883ZM1039.39 476.344H1020.08V474.211H1027.21V466.852H1029.78V474.211H1039.39V476.344ZM1058.7 470.344H1056.22V465.07H1053.99V470.25H1051.53V458.32H1053.99V462.938H1056.22V457.922H1058.7V470.344ZM1058.7 479.086H1056.1V473.32H1044.1V471.211H1058.7V479.086ZM1049.82 459.398C1049.83 462.023 1049.16 464.258 1047.81 466.102C1046.48 467.938 1044.44 469.414 1041.71 470.531L1040.47 468.586C1044.51 467.047 1046.74 464.688 1047.17 461.508H1041.43V459.398H1049.82Z" fill="#1A1F27"/>
<defs>
<filter id="filter0_d_1451_5976" x="663" y="86" width="305" height="122" filterUnits="userSpaceOnUse" color-interpolation-filters="sRGB">
<feFlood flood-opacity="0" result="BackgroundImageFix"/>
<feColorMatrix in="SourceAlpha" type="matrix" values="0 0 0 0 0 0 0 0 0 0 0 0 0 0 0 0 0 0 127 0" result="hardAlpha"/>
<feOffset dy="12"/>
<feGaussianBlur stdDeviation="15"/>
<feComposite in2="hardAlpha" operator="out"/>
<feColorMatrix type="matrix" values="0 0 0 0 0.0976331 0 0 0 0 0.189842 0 0 0 0 0.423077 0 0 0 0.15 0"/>
<feBlend mode="normal" in2="BackgroundImageFix" result="effect1_dropShadow_1451_5976"/>
<feBlend mode="normal" in="SourceGraphic" in2="effect1_dropShadow_1451_5976" result="shape"/>
</filter>
<filter id="filter1_d_1451_5976" x="682" y="164" width="270" height="122" filterUnits="userSpaceOnUse" color-interpolation-filters="sRGB">
<feFlood flood-opacity="0" result="BackgroundImageFix"/>
<feColorMatrix in="SourceAlpha" type="matrix" values="0 0 0 0 0 0 0 0 0 0 0 0 0 0 0 0 0 0 127 0" result="hardAlpha"/>
<feOffset dy="12"/>
<feGaussianBlur stdDeviation="15"/>
<feComposite in2="hardAlpha" operator="out"/>
<feColorMatrix type="matrix" values="0 0 0 0 0.0976331 0 0 0 0 0.189842 0 0 0 0 0.423077 0 0 0 0.15 0"/>
<feBlend mode="normal" in2="BackgroundImageFix" result="effect1_dropShadow_1451_5976"/>
<feBlend mode="normal" in="SourceGraphic" in2="effect1_dropShadow_1451_5976" result="shape"/>
</filter>
<filter id="filter2_d_1451_5976" x="207" y="242" width="349" height="122" filterUnits="userSpaceOnUse" color-interpolation-filters="sRGB">
<feFlood flood-opacity="0" result="BackgroundImageFix"/>
<feColorMatrix in="SourceAlpha" type="matrix" values="0 0 0 0 0 0 0 0 0 0 0 0 0 0 0 0 0 0 127 0" result="hardAlpha"/>
<feOffset dy="12"/>
<feGaussianBlur stdDeviation="15"/>
<feComposite in2="hardAlpha" operator="out"/>
<feColorMatrix type="matrix" values="0 0 0 0 0.0976331 0 0 0 0 0.189842 0 0 0 0 0.423077 0 0 0 0.15 0"/>
<feBlend mode="normal" in2="BackgroundImageFix" result="effect1_dropShadow_1451_5976"/>
<feBlend mode="normal" in="SourceGraphic" in2="effect1_dropShadow_1451_5976" result="shape"/>
</filter>
<filter id="filter3_d_1451_5976" x="253" y="320" width="270" height="122" filterUnits="userSpaceOnUse" color-interpolation-filters="sRGB">
<feFlood flood-opacity="0" result="BackgroundImageFix"/>
<feColorMatrix in="SourceAlpha" type="matrix" values="0 0 0 0 0 0 0 0 0 0 0 0 0 0 0 0 0 0 127 0" result="hardAlpha"/>
<feOffset dy="12"/>
<feGaussianBlur stdDeviation="15"/>
<feComposite in2="hardAlpha" operator="out"/>
<feColorMatrix type="matrix" values="0 0 0 0 0.0976331 0 0 0 0 0.189842 0 0 0 0 0.423077 0 0 0 0.15 0"/>
<feBlend mode="normal" in2="BackgroundImageFix" result="effect1_dropShadow_1451_5976"/>
<feBlend mode="normal" in="SourceGraphic" in2="effect1_dropShadow_1451_5976" result="shape"/>
</filter>
</defs>
</svg>
